HIERARCHY
ROOT Hips
{
	OFFSET 0.000000 0.000000 0.000000
	CHANNELS 6 Xposition Yposition Zposition Xrotation Yrotation Zrotation
	JOINT Spine
	{
		OFFSET 0.000000 0.000000 0.102259
		CHANNELS 3 Xrotation Yrotation Zrotation
		JOINT Spine1
		{
			OFFSET 0.000000 -0.017757 0.100705
			CHANNELS 3 Xrotation Yrotation Zrotation
			JOINT Spine2
			{
				OFFSET 0.000000 -0.008912 0.101870
				CHANNELS 3 Xrotation Yrotation Zrotation
				JOINT Spine3
				{
					OFFSET 0.000000 0.000000 0.102259
					CHANNELS 3 Xrotation Yrotation Zrotation
					JOINT Neck
					{
						OFFSET 0.000000 0.013148 0.131476
						CHANNELS 3 Xrotation Yrotation Zrotation
						JOINT Neck1
						{
							OFFSET 0.000000 0.003817 0.043628
							CHANNELS 3 Xrotation Yrotation Zrotation
							JOINT Head
							{
								OFFSET 0.000000 0.007605 0.043130
								CHANNELS 3 Xrotation Yrotation Zrotation
								End Site
								{
									OFFSET 0.000000 0.000000 0.097916
								}
							}
						}
					}
					JOINT RightShoulder
					{
						OFFSET 0.000000 0.000000 0.092033
						CHANNELS 3 Xrotation Yrotation Zrotation
						JOINT RightArm
						{
							OFFSET 0.166682 0.000000 0.000000
							CHANNELS 3 Xrotation Yrotation Zrotation
							JOINT RightForeArm
							{
								OFFSET 0.339269 0.000000 0.000000
								CHANNELS 3 Xrotation Yrotation Zrotation
								JOINT RightHand
								{
									OFFSET 0.272813 0.000000 0.000000
									CHANNELS 3 Xrotation Yrotation Zrotation
									End Site
									{
										OFFSET 0.042337 0.031482 -0.014412
									}
									End Site
									{
										OFFSET 0.112899 -0.001086 0.000000
									}
								}
							}
						}
					}
					JOINT LeftShoulder
					{
						OFFSET 0.000000 0.000000 0.092033
						CHANNELS 3 Xrotation Yrotation Zrotation
						JOINT LeftArm
						{
							OFFSET -0.166682 0.000000 0.000000
							CHANNELS 3 Xrotation Yrotation Zrotation
							JOINT LeftForeArm
							{
								OFFSET -0.339269 0.000000 0.000000
								CHANNELS 3 Xrotation Yrotation Zrotation
								JOINT LeftHand
								{
									OFFSET -0.272813 0.000000 0.000000
									CHANNELS 3 Xrotation Yrotation Zrotation
									End Site
									{
										OFFSET -0.042337 0.031482 -0.014412
									}
									End Site
									{
										OFFSET -0.112899 -0.001086 0.000000
									}
								}
							}
						}
					}
				}
			}
		}
	}
	JOINT RightUpLeg
	{
		OFFSET 0.120852 0.000000 0.000000
		CHANNELS 3 Xrotation Yrotation Zrotation
		JOINT RightLeg
		{
			OFFSET 0.000000 0.000000 -0.533302
			CHANNELS 3 Xrotation Yrotation Zrotation
			JOINT RightFoot
			{
				OFFSET 0.000000 0.000000 -0.471812
				CHANNELS 3 Xrotation Yrotation Zrotation
				JOINT RightToeBase
				{
					OFFSET 0.000000 0.169608 -0.043308
					CHANNELS 3 Xrotation Yrotation Zrotation
					End Site
					{
						OFFSET 0.000000 0.063837 0.000000
					}
				}
			}
		}
	}
	JOINT LeftUpLeg
	{
		OFFSET -0.120852 0.000000 0.000000
		CHANNELS 3 Xrotation Yrotation Zrotation
		JOINT LeftLeg
		{
			OFFSET 0.000000 0.000000 -0.533302
			CHANNELS 3 Xrotation Yrotation Zrotation
			JOINT LeftFoot
			{
				OFFSET 0.000000 0.000000 -0.471812
				CHANNELS 3 Xrotation Yrotation Zrotation
				JOINT LeftToeBase
				{
					OFFSET 0.000000 0.169608 -0.043308
					CHANNELS 3 Xrotation Yrotation Zrotation
					End Site
					{
						OFFSET 0.000000 0.064424 0.000000
					}
				}
			}
		}
	}
}
MOTION
Frames: 5
Frame Time: 0.008333
-3.839798 1.072360 -1.825044 -88.241357 -1.751166 -177.807837 2.475502 -3.479012 0.856879 2.483755 -3.391110 1.157126 -8.251424 1.642039 1.497615 -8.251424 1.642039 1.497615 11.081622 6.158628 -5.625370 -0.774210 3.742247 -5.103711 -16.975127 1.668033 -4.189679 0.873715 8.411377 -5.951981 -39.277389 53.973920 46.323588 -0.678124 -2.771405 76.244896 0.000035 24.670952 -6.197973 -1.918444 -10.622432 -10.298806 -34.692862 -52.417308 -36.653336 -1.373027 0.749834 -28.634415 -0.000028 -25.818986 -13.293327 13.454545 -13.896420 -9.630435 -25.851000 0.000000 0.000000 7.902507 16.818915 -29.979040 9.629700 0.000000 0.000000 1.045390 -9.556088 11.957426 -2.548500 0.000000 0.000000 6.929685 12.337452 18.974433 2.104000 0.000000 0.000000 
-3.840108 1.072276 -1.825029 -88.242918 -1.795967 -177.799376 2.431409 -3.507315 0.850092 2.439779 -3.419809 1.152853 -8.259698 1.652736 1.497423 -8.259698 1.652736 1.497423 11.125467 6.232165 -5.445981 -0.447736 3.746075 -4.921942 -16.262339 1.524933 -4.023927 0.867466 8.357864 -5.947056 -39.309103 53.968677 46.379778 -0.675555 -2.771620 76.296057 0.000039 24.644132 -6.200931 -1.907523 -10.595548 -10.266734 -34.715454 -52.445543 -36.718205 -1.340664 0.730850 -28.591549 -0.000005 -25.824358 -13.289474 13.650640 -13.976417 -9.419282 -26.252200 0.000000 0.000000 7.892188 16.992075 -29.880266 9.737200 0.000000 0.000000 1.053268 -9.580569 11.974536 -2.573900 0.000000 0.000000 6.952944 12.311780 18.949208 2.092100 0.000000 0.000000 
-3.840367 1.072258 -1.824999 -88.236339 -1.881917 -177.791238 2.403873 -3.571718 0.839030 2.412664 -3.485003 1.147522 -8.286414 1.688521 1.500152 -8.286414 1.688521 1.500152 11.176805 6.293885 -5.261401 -0.121453 3.741025 -4.735013 -15.560131 1.375683 -3.854113 0.859346 8.309596 -5.925045 -39.273069 53.982286 46.386037 -0.672465 -2.769181 76.344846 0.000033 24.650873 -6.213823 -1.906979 -10.599056 -10.260542 -34.668264 -52.485258 -36.715187 -1.363421 0.742383 -28.563067 -0.000028 -25.827170 -13.287786 13.867243 -14.104162 -9.192611 -26.681200 0.000000 0.000000 7.865411 17.134141 -29.752404 9.819800 0.000000 0.000000 1.067238 -9.647425 11.975721 -2.612700 0.000000 0.000000 6.931183 12.288478 18.933303 2.110700 0.000000 0.000000 
-3.840740 1.072116 -1.825065 -88.238293 -1.909520 -177.795427 2.345057 -3.594119 0.835143 2.353995 -3.507601 1.145546 -8.277478 1.707213 1.502667 -8.277478 1.707213 1.502667 11.222811 6.355277 -5.076679 0.200221 3.734439 -4.547677 -14.861673 1.223069 -3.683240 0.852336 8.234402 -5.930015 -39.297930 54.039019 46.453157 -0.677310 -2.797437 76.383762 0.000018 24.680425 -6.217063 -1.896373 -10.565448 -10.235825 -34.702683 -52.533554 -36.783591 -1.424189 0.774452 -28.530974 -0.000031 -25.831832 -13.305407 14.104505 -14.162702 -8.923030 -27.150100 0.000000 0.000000 7.828383 17.299677 -29.619522 9.889100 0.000000 0.000000 1.078885 -9.651700 12.004599 -2.625400 0.000000 0.000000 6.978695 12.277512 18.920375 2.073800 0.000000 0.000000 
-3.841017 1.072065 -1.825100 -88.228269 -1.985241 -177.796270 2.303613 -3.637320 0.829271 2.312738 -3.551194 1.143496 -8.286432 1.724304 1.506182 -8.286432 1.724304 1.506182 11.272920 6.471851 -4.880476 0.521425 3.736489 -4.339342 -14.168235 1.007621 -3.496541 0.848149 8.200986 -5.925019 -39.267257 54.080465 46.454670 -0.682968 -2.834033 76.444805 0.000059 24.694122 -6.230310 -1.894686 -10.571322 -10.221589 -34.727612 -52.518810 -36.836681 -1.434226 0.779020 -28.503449 0.000026 -25.803123 -13.321217 14.365790 -14.282806 -8.679872 -27.627900 0.000000 0.000000 7.714589 17.375673 -29.383710 10.027400 0.000000 0.000000 1.092516 -9.708931 11.973073 -2.642100 0.000000 0.000000 6.940253 12.264853 18.948572 2.103700 0.000000 0.000000 
